<svg xmlns="http://www.w3.org/2000/svg" viewBox="0 0 120 120" width="120" height="120">
  <circle cx="60" cy="60" r="56" fill="#E53935"/>
  <circle cx="60" cy="60" r="56" fill="none" stroke="#B71C1C" stroke-width="2"/>
  <path d="M28 36 L52 50" stroke="#333" stroke-width="4" stroke-linecap="round"/>
  <path d="M92 36 L68 50" stroke="#333" stroke-width="4" stroke-linecap="round"/>
  <ellipse cx="42" cy="56" rx="6" ry="7" fill="#333"/>
  <ellipse cx="78" cy="56" rx="6" ry="7" fill="#333"/>
  <ellipse cx="44" cy="54" rx="2" ry="2.5" fill="#fff"/>
  <ellipse cx="80" cy="54" rx="2" ry="2.5" fill="#fff"/>
  <path d="M38 80 Q60 92 82 80" fill="#333" stroke="#333" stroke-width="2"/>
  <path d="M46 80 Q60 86 74 80" fill="#fff"/>
  <path d="M20 24 L30 18" stroke="#FFD600" stroke-width="3" stroke-linecap="round"/>
  <path d="M100 24 L90 18" stroke="#FFD600" stroke-width="3" stroke-linecap="round"/>
  <path d="M14 36 L22 32" stroke="#FFD600" stroke-width="2.5" stroke-linecap="round"/>
  <path d="M106 36 L98 32" stroke="#FFD600" stroke-width="2.5" stroke-linecap="round"/>
</svg>
