<svg xmlns="http://www.w3.org/2000/svg" viewBox="0 0 120 120" width="120" height="120">
  <circle cx="60" cy="60" r="56" fill="#FFE0E0"/>
  <circle cx="60" cy="60" r="56" fill="none" stroke="#FFB3B3" stroke-width="2"/>
  <path d="M36 50 Q42 44 48 50" fill="none" stroke="#333" stroke-width="2.5" stroke-linecap="round"/>
  <path d="M72 50 Q78 44 84 50" fill="none" stroke="#333" stroke-width="2.5" stroke-linecap="round"/>
  <path d="M44 72 Q60 82 76 72" fill="none" stroke="#333" stroke-width="3" stroke-linecap="round"/>
  <path d="M26 58 Q20 50 26 44 Q32 38 38 44 L42 50" fill="none" stroke="#E8A800" stroke-width="4" stroke-linecap="round"/>
  <path d="M94 58 Q100 50 94 44 Q88 38 82 44 L78 50" fill="none" stroke="#E8A800" stroke-width="4" stroke-linecap="round"/>
  <path d="M60 88 C60 88 48 80 48 72 C48 66 52 64 56 64 C58 64 60 66 60 66 C60 66 62 64 64 64 C68 64 72 66 72 72 C72 80 60 88 60 88Z" fill="#E53935" opacity="0.8"/>
  <ellipse cx="30" cy="62" rx="6" ry="4" fill="#FF9AA2" opacity="0.5"/>
  <ellipse cx="90" cy="62" rx="6" ry="4" fill="#FF9AA2" opacity="0.5"/>
</svg>
